HIERARCHY
ROOT hips
{
  OFFSET 0 10.6860622 2.3727825e-15
  CHANNELS 6 Xposition Yposition Zposition Yrotation Xrotation Zrotation
  JOINT leftUpperLeg
  {
    OFFSET 0.6642549969 -0.9402397400000004 0
    CHANNELS 3 Yrotation Xrotation Zrotation
    JOINT leftLowerLeg
    {
      OFFSET 0 -3.997221335632195 0
      CHANNELS 3 Yrotation Xrotation Zrotation
      JOINT leftFoot
      {
        OFFSET -0.13777839790000004 -4.6145792000000005 -0.22186036399999998
        CHANNELS 3 Yrotation Xrotation Zrotation
        JOINT leftToes
        {
          OFFSET -0.03777410834999995 -0.9130806927000008 0.85230013
          CHANNELS 3 Yrotation Xrotation Zrotation
          End Site
          {
            OFFSET -0.03777410834999995 -0.9130806927000008 0.85230013
          }
        }
      }
    }
  }
  JOINT rightUpperLeg
  {
    OFFSET -0.6642778626 -0.9402397400000004 0
    CHANNELS 3 Yrotation Xrotation Zrotation
    JOINT rightLowerLeg
    {
      OFFSET 0 -3.997221452859387 0
      CHANNELS 3 Yrotation Xrotation Zrotation
      JOINT rightFoot
      {
        OFFSET 0.1377926176 -4.6145792000000005 -0.22185782299999995
        CHANNELS 3 Yrotation Xrotation Zrotation
        JOINT rightToes
        {
          OFFSET 0.037780746850000047 -0.9130806927000008 0.85230167
          CHANNELS 3 Yrotation Xrotation Zrotation
          End Site
          {
            OFFSET 0.037780746850000047 -0.9130806927000008 0.85230167
          }
        }
      }
    }
  }
  JOINT spine
  {
    OFFSET 0 0.13988381660000015 0
    CHANNELS 3 Yrotation Xrotation Zrotation
    JOINT chest
    {
      OFFSET 0 0.6191039003973773 0
      CHANNELS 3 Yrotation Xrotation Zrotation
      JOINT upperChest
      {
        OFFSET 0 0.9855186130586943 0
        CHANNELS 3 Yrotation Xrotation Zrotation
        JOINT leftShoulder
        {
          OFFSET 0.1807663869 1.5087829790000005 0
          CHANNELS 3 Yrotation Xrotation Zrotation
          JOINT leftUpperArm
          {
            OFFSET 0.5985063006419806 0 0
            CHANNELS 3 Yrotation Xrotation Zrotation
            JOINT leftLowerArm
            {
              OFFSET 2.2993332369501065 0 0
              CHANNELS 3 Yrotation Xrotation Zrotation
              JOINT leftHand
              {
                OFFSET 2.395047042602395 0 0
                CHANNELS 3 Yrotation Xrotation Zrotation
                JOINT leftIndexProximal
                {
                  OFFSET 0.5766295810000004 0.04556643899499946 0.17265095988184
                  CHANNELS 3 Yrotation Xrotation Zrotation
                  JOINT leftIndexIntermediate
                  {
                    OFFSET 0.2957229000000008 -0.019352197700001517 -0.007932640616999987
                    CHANNELS 3 Yrotation Xrotation Zrotation
                    JOINT leftIndexDistal
                    {
                      OFFSET 0.19008243099999922 -0.012484908149998475 -0.002786250786000012
                      CHANNELS 3 Yrotation Xrotation Zrotation
                      End Site
                      {
                        OFFSET 0.19008243099999922 -0.012484908149998475 -0.002786250786000012
                      }
                    }
                  }
                }
                JOINT leftMiddleProximal
                {
                  OFFSET 0.5834975091000001 0.0524350405149987 0.02204081888183999
                  CHANNELS 3 Yrotation Xrotation Zrotation
                  JOINT leftMiddleIntermediate
                  {
                    OFFSET 0.33880573540000003 -0.019871473270000717 -0.00000971183179999946
                    CHANNELS 3 Yrotation Xrotation Zrotation
                    JOINT leftMiddleDistal
                    {
                      OFFSET 0.20676022730000088 -0.012221336379999448 0.0001471936708000235
                      CHANNELS 3 Yrotation Xrotation Zrotation
                      End Site
                      {
                        OFFSET 0.20676022730000088 -0.012221336379999448 0.0001471936708000235
                      }
                    }
                  }
                }
                JOINT leftLittleProximal
                {
                  OFFSET 0.5344154683999995 -0.012880921405001189 -0.24414037221816004
                  CHANNELS 3 Yrotation Xrotation Zrotation
                  JOINT leftLittleIntermediate
                  {
                    OFFSET 0.21758961730000093 -0.011650919939999227 0.011893592810000034
                    CHANNELS 3 Yrotation Xrotation Zrotation
                    JOINT leftLittleDistal
                    {
                      OFFSET 0.1475273964999999 -0.008152365682999818 0.006001092492999946
                      CHANNELS 3 Yrotation Xrotation Zrotation
                      End Site
                      {
                        OFFSET 0.1475273964999999 -0.008152365682999818 0.006001092492999946
                      }
                    }
                  }
                }
                JOINT leftRingProximal
                {
                  OFFSET 0.5799399463000003 0.026911854694997794 -0.12150566991816003
                  CHANNELS 3 Yrotation Xrotation Zrotation
                  JOINT leftRingIntermediate
                  {
                    OFFSET 0.26167887460000006 -0.013480186499999602 0.010996293000000053
                    CHANNELS 3 Yrotation Xrotation Zrotation
                    JOINT leftRingDistal
                    {
                      OFFSET 0.17667108799999987 -0.008990287899999228 0.0055541023999999065
                      CHANNELS 3 Yrotation Xrotation Zrotation
                      End Site
                      {
                        OFFSET 0.17667108799999987 -0.008990287899999228 0.0055541023999999065
                      }
                    }
                  }
                }
                JOINT leftThumbProximal
                {
                  OFFSET 0.11018806699999972 -0.09448718900500053 0.17047963138184
                  CHANNELS 3 Yrotation Xrotation Zrotation
                  JOINT leftThumbIntermediate
                  {
                    OFFSET 0.31062601459999983 -0.08126270900000132 0.15443142000000007
                    CHANNELS 3 Yrotation Xrotation Zrotation
                    JOINT leftThumbDistal
                    {
                      OFFSET 0.21627175790000086 -0.08833193599999878 0.018771167799999988
                      CHANNELS 3 Yrotation Xrotation Zrotation
                      End Site
                      {
                        OFFSET 0.21627175790000086 -0.08833193599999878 0.018771167799999988
                      }
                    }
                  }
                }
              }
            }
          }
        }
        JOINT neck
        {
          OFFSET 0 1.5463305265074576 0
          CHANNELS 3 Yrotation Xrotation Zrotation
          JOINT head
          {
            OFFSET 0 0.8456443600000344 0
            CHANNELS 3 Yrotation Xrotation Zrotation
            JOINT leftEye
            {
              OFFSET 0.30408573140000006 0.5104519199999995 0.1276382305
              CHANNELS 3 Yrotation Xrotation Zrotation
              End Site
              {
                OFFSET 0.30408573140000006 0.5104519199999995 0.1276382305
              }
            }
            JOINT rightEye
            {
              OFFSET -0.30409491089999996 0.5104519199999995 0.1276379445
              CHANNELS 3 Yrotation Xrotation Zrotation
              End Site
              {
                OFFSET -0.30409491089999996 0.5104519199999995 0.1276379445
              }
            }
            JOINT jaw
            {
              OFFSET -3.155239131000001e-7 -0.11984121820000082 0.60178107
              CHANNELS 3 Yrotation Xrotation Zrotation
              End Site
              {
                OFFSET -3.155239131000001e-7 -0.11984121820000082 0.60178107
              }
            }
          }
        }
        JOINT rightShoulder
        {
          OFFSET -0.1807303465 1.5087829790000005 0
          CHANNELS 3 Yrotation Xrotation Zrotation
          JOINT rightUpperArm
          {
            OFFSET -0.5985063796536958 0 0
            CHANNELS 3 Yrotation Xrotation Zrotation
            JOINT rightLowerArm
            {
              OFFSET -2.2993322059002854 0 0
              CHANNELS 3 Yrotation Xrotation Zrotation
              JOINT rightHand
              {
                OFFSET -2.395045314457259 0 0
                CHANNELS 3 Yrotation Xrotation Zrotation
                JOINT rightIndexProximal
                {
                  OFFSET -0.5764487688300002 0.0441371204405987 0.17361932004999997
                  CHANNELS 3 Yrotation Xrotation Zrotation
                  JOINT rightIndexIntermediate
                  {
                    OFFSET -0.29573011380000047 -0.01934826376999843 -0.007698921482999974
                    CHANNELS 3 Yrotation Xrotation Zrotation
                    JOINT rightIndexDistal
                    {
                      OFFSET -0.19008373999999884 -0.012503266380000655 -0.0026365778999999897
                      CHANNELS 3 Yrotation Xrotation Zrotation
                      End Site
                      {
                        OFFSET -0.19008373999999884 -0.012503266380000655 -0.0026365778999999897
                      }
                    }
                  }
                }
                JOINT rightMiddleProximal
                {
                  OFFSET -0.5834852037300005 0.05211639405060153 0.02307162440000001
                  CHANNELS 3 Yrotation Xrotation Zrotation
                  JOINT rightMiddleIntermediate
                  {
                    OFFSET -0.33880114510000003 -0.019952774050000954 0.0002455003561999819
                    CHANNELS 3 Yrotation Xrotation Zrotation
                    JOINT rightMiddleDistal
                    {
                      OFFSET -0.20675694929999955 -0.012273788999999091 0.00030209124000002766
                      CHANNELS 3 Yrotation Xrotation Zrotation
                      End Site
                      {
                        OFFSET -0.20675694929999955 -0.012273788999999091 0.00030209124000002766
                      }
                    }
                  }
                }
                JOINT rightLittleProximal
                {
                  OFFSET -0.5346811737299992 -0.011214256288399227 -0.24363941305000003
                  CHANNELS 3 Yrotation Xrotation Zrotation
                  JOINT rightLittleIntermediate
                  {
                    OFFSET -0.21757715980000092 -0.011771559690000988 0.01201554387
                    CHANNELS 3 Yrotation Xrotation Zrotation
                    JOINT rightLittleDistal
                    {
                      OFFSET -0.1475201849000004 -0.00822055339600003 0.006082065407000015
                      CHANNELS 3 Yrotation Xrotation Zrotation
                      End Site
                      {
                        OFFSET -0.1475201849000004 -0.00822055339600003 0.006082065407000015
                      }
                    }
                  }
                }
                JOINT rightRingProximal
                {
                  OFFSET -0.5800810755299999 0.027657985680600072 -0.12066365025000003
                  CHANNELS 3 Yrotation Xrotation Zrotation
                  JOINT rightRingIntermediate
                  {
                    OFFSET -0.26166445029999974 -0.013623118409999302 0.011164098990000045
                    CHANNELS 3 Yrotation Xrotation Zrotation
                    JOINT rightRingDistal
                    {
                      OFFSET -0.17666387530000027 -0.009072900100000503 0.005668185599999959
                      CHANNELS 3 Yrotation Xrotation Zrotation
                      End Site
                      {
                        OFFSET -0.17666387530000027 -0.009072900100000503 0.005668185599999959
                      }
                    }
                  }
                }
                JOINT rightThumbProximal
                {
                  OFFSET -0.10997596379000074 -0.09577489355940072 0.16989765924999997
                  CHANNELS 3 Yrotation Xrotation Zrotation
                  JOINT rightThumbIntermediate
                  {
                    OFFSET -0.31036620999999986 -0.08229339117999834 0.15440884469999996
                    CHANNELS 3 Yrotation Xrotation Zrotation
                    JOINT rightThumbDistal
                    {
                      OFFSET -0.21631306399999906 -0.08825326400000111 0.018656797720000014
                      CHANNELS 3 Yrotation Xrotation Zrotation
                      End Site
                      {
                        OFFSET -0.21631306399999906 -0.08825326400000111 0.018656797720000014
                      }
                    }
                  }
                }
              }
            }
          }
        }
      }
    }
  }
}
MOTION
Frames: 7
Frame Time: 0.03333333333333333
0 -9.941573141864007 0.2555604368149332 180 -88.64635903986049 180 41.9208146407156 -31.996794726132237 -2.414436309369332 12.732438427873458 61.00934377960808 46.91335347409373 8.150585613372732 18.932024842381104 -3.9656181407794726 0 0 0 -41.93467572283068 -32.006520120902195 2.4044126057565753 -12.727757097838923 61.03080692856685 -46.937758323604456 -8.166340849335137 18.917993602890704 3.9583491907992183 0 0 0 -0.019641457183368342 -2.586833832161227 -0.02155639673319642 -0.7223791123581901 -4.727561912621391 -0.10904671978823426 0 0 0 -3.156032797041405 14.425147175934505 -19.47711479504646 -11.057465589615527 -31.4679337984916 -54.876578131717146 -5.770927440103835 33.85480927006324 -14.41704369481721 53.70887409437475 -31.18423057521725 -62.05526089870976 0 0 0 0 0 0 0 0 0 0 0 0 0 0 0 0 0 0 0 0 0 0 0 0 0 0 0 0 0 0 0 0 0 0 0 0 0 0 0 0 0 0 0 0 0 0 41.525126342231175 0 6.383449894660353 -24.465365957042465 5.991723562325215 0 0 0 0 0 0 0 0 0 4.136609872124926 13.915568165509097 21.06434429631037 10.927661414773445 -31.23135467172123 53.864227462982974 5.46906193332205 33.895403530999346 13.737962293730657 -53.49840453562623 -30.305874284783805 61.81933198548398 0 0 0 0 0 0 0 0 0 0 0 0 0 0 0 0 0 0 0 0 0 0 0 0 0 0 0 0 0 0 0 0 0 0 0 0 0 0 0 0 0 0 0 0 0
0 -9.953424002603526 0.2555604368149332 180 -88.29589777942279 180 41.87418756153057 -31.807927560414235 -2.1933879022128013 12.732438427873458 61.00934377960808 46.91335347409373 8.115454214384952 18.949583151978956 -3.8776300112653512 0 0 0 -41.888270776845204 -31.817653109576653 2.183484128688235 -12.727757097838923 61.03080692856685 -46.937758323604456 -8.131243669857035 18.935519748397514 3.8700848100339633 0 0 0 -0.019647917436762658 -2.0351440474914746 -0.0217322263161981 -0.7223791123581901 -4.727561912621391 -0.10904671978823426 0 0 0 -3.371624150288676 14.021233588418326 -19.752564612668156 -11.031981057126464 -31.438745584872827 -54.647183433739315 -5.636426927481591 33.879857049322624 -14.142835647055685 53.840206747911594 -31.075772934704947 -62.25613391625474 0 0 0 0 0 0 0 0 0 0 0 0 0 0 0 0 0 0 0 0 0 0 0 0 0 0 0 0 0 0 0 0 0 0 0 0 0 0 0 0 0 0 0 0 0 0 41.525126342231175 0 6.358155518906683 -24.298912299000637 5.969181061923917 0 0 0 0 0 0 0 0 0 4.385937772106165 13.482148331201945 21.395245511879722 10.89384421403233 -31.194310650513277 53.59122366506005 5.322330079463372 33.92195717358228 13.434387217834981 -53.61989887795741 -30.155263344962812 62.00811687144404 0 0 0 0 0 0 0 0 0 0 0 0 0 0 0 0 0 0 0 0 0 0 0 0 0 0 0 0 0 0 0 0 0 0 0 0 0 0 0 0 0 0 0 0 0
0 -9.977125992474837 0.2555604368149332 180 -87.59514994461641 180 41.78376395209956 -31.429763962059734 -1.7531896654843786 12.732438427873458 61.00934377960808 46.91335347409373 8.045266535055394 18.984855195424892 -3.7016604592826914 0 0 0 -41.79830151432275 -31.439486086831387 1.7435293571450614 -12.727757097838923 61.03080692856685 -46.937758323604456 -8.061131174965322 18.970729231855977 3.6935603977114497 0 0 0 -0.019666292585764137 -0.9319430318211737 -0.022084285390439367 -0.7223791123581901 -4.727561912621391 -0.10904671978823426 0 0 0 -3.795655905681744 13.210545923016316 -20.29729513935965 -10.980623781451099 -31.38064041649905 -54.18857503984217 -5.366884020711129 33.9283283157601 -13.593976625321359 54.101104100257004 -30.857699955046996 -62.65632747468429 0 0 0 0 0 0 0 0 0 0 0 0 0 0 0 0 0 0 0 0 0 0 0 0 0 0 0 0 0 0 0 0 0 0 0 0 0 0 0 0 0 0 0 0 0 0 41.525126342231175 0 6.307415096694215 -23.965812242572042 5.9239096884568 0 0 0 0 0 0 0 0 0 4.875483286542718 12.611315360737962 22.049382548040075 10.825637842279656 -31.120637060247407 53.0454854013591 5.02824278531475 33.97311262411079 12.826734765733745 -53.86054407435958 -29.853029276204182 62.383674258257045 0 0 0 0 0 0 0 0 0 0 0 0 0 0 0 0 0 0 0 0 0 0 0 0 0 0 0 0 0 0 0 0 0 0 0 0 0 0 0 0 0 0 0 0 0
0 -9.988976853214357 0.2555604368149332 180 -87.24472836464517 180 41.73998956139501 -31.240477147652193 -1.5340372952320385 12.732438427873458 61.00934377960808 46.91335347409373 8.010211437537004 19.002568965507045 -3.613680204687158 0 0 0 -41.7547168656637 -31.25018772119149 1.524488476046628 -12.727757097838923 61.03080692856685 -46.937758323604456 -8.026111683899298 18.988414412124172 3.605303113241589 0 0 0 -0.01967828775117316 -0.3804840604060549 -0.022259569022599908 -0.7223791123581901 -4.727561912621391 -0.10904671978823426 0 0 0 -4.004134301173151 12.803835734560801 -20.566619381913213 -10.954747372592719 -31.351723278936962 -53.95937286942623 -5.231856712588192 33.95176323862818 -13.31934483609923 54.230656293016736 -30.74808249227273 -62.85563285232474 0 0 0 0 0 0 0 0 0 0 0 0 0 0 0 0 0 0 0 0 0 0 0 0 0 0 0 0 0 0 0 0 0 0 0 0 0 0 0 0 0 0 0 0 0 0 41.525126342231175 0 6.281970495896558 -23.79916727002656 5.901182536770537 0 0 0 0 0 0 0 0 0 5.115755123258185 12.174004118922685 22.37268739185519 10.791251411079962 -31.084011126480732 52.77275757073603 4.88090015343228 33.997721506937175 12.522672444590949 -53.97976147257023 -29.701409090782125 62.57049063380685 0 0 0 0 0 0 0 0 0 0 0 0 0 0 0 0 0 0 0 0 0 0 0 0 0 0 0 0 0 0 0 0 0 0 0 0 0 0 0 0 0 0 0 0 0
0 -10.012678843085668 0.2555604368149332 180 -86.54418580781103 180 41.65520981081937 -30.861515162094598 -1.0975736306427029 12.732438427873458 61.00934377960808 46.91335347409373 7.940173128786805 19.038137642801903 -3.4377280810041198 0 0 0 -41.670390247679336 -30.871234879252995 1.0882648350277822 -12.727757097838923 61.03080692856685 -46.937758323604456 -7.9561501741620795 19.023929487805113 3.428796361059063 0 0 0 -0.0197066690698983 0.7220258672568904 -0.0226116808884391 -0.7223791123581901 -4.727561912621391 -0.10904671978823426 0 0 0 -4.414122679235754 11.987846411512756 -21.099309996909906 -10.90262713202965 -31.294159443862334 -53.50116493251659 -4.961313742871896 33.99702123938105 -12.7697019317106 54.48796893786784 -30.527698157411603 -63.25269134070944 0 0 0 0 0 0 0 0 0 0 0 0 0 0 0 0 0 0 0 0 0 0 0 0 0 0 0 0 0 0 0 0 0 0 0 0 0 0 0 0 0 0 0 0 0 0 41.525126342231175 0 6.230927414669545 -23.465696520916698 5.855543814656747 0 0 0 0 0 0 0 0 0 5.5874114628998175 11.29580510514028 23.01188610529971 10.721920167405097 -31.011188063764646 52.22758354935264 4.585652589633554 34.044994681748456 11.91411793838752 -54.21588802527891 -29.39718039788569 62.94213348271804 0 0 0 0 0 0 0 0 0 0 0 0 0 0 0 0 0 0 0 0 0 0 0 0 0 0 0 0 0 0 0 0 0 0 0 0 0 0 0 0 0 0 0 0 0
0 -10.024529703825188 0.2555604368149332 180 -86.19393672590304 180 41.614207489947304 -30.671849314806288 -0.8802566305888698 12.732438427873458 61.00934377960808 46.91335347409373 7.905194296488594 19.055999809836894 -3.3497564836611025 0 0 0 -41.62960088587145 -30.681569746102763 0.8710591250739257 -12.727757097838923 61.03080692856685 -46.937758323604456 -7.921207556336113 19.04176664309921 3.340547163437638 0 0 0 -0.019724136828540715 1.2730258560349161 -0.02278764727410911 -0.7223791123581901 -4.727561912621391 -0.10904671978823426 0 0 0 -4.615670407912074 11.57863252327457 -21.36271360897118 -10.8763882299045 -31.265504575923057 -53.272144497194624 -4.825800657212745 34.01882698488497 -12.494692422900595 54.6157283890906 -30.416948925262883 -63.45042944065317 0 0 0 0 0 0 0 0 0 0 0 0 0 0 0 0 0 0 0 0 0 0 0 0 0 0 0 0 0 0 0 0 0 0 0 0 0 0 0 0 0 0 0 0 0 0 41.525126342231175 0 6.2053304019443125 -23.298872105058134 5.832630686204321 0 0 0 0 0 0 0 0 0 5.818840232048663 10.85500940191232 23.327836108174445 10.686971213248329 -30.974994560702577 51.95516149583898 4.4377595688002005 34.06764553023028 11.60963543291413 -54.332818727930096 -29.244576632521163 63.12698100057316 0 0 0 0 0 0 0 0 0 0 0 0 0 0 0 0 0 0 0 0 0 0 0 0 0 0 0 0 0 0 0 0 0 0 0 0 0 0 0 0 0 0 0 0 0
0 -10.048231425304227 0.2555604368149332 180 -85.49363029954459 180 41.534953544050005 -30.29218470138307 -0.4474236208150201 12.732438427873458 61.00934377960808 46.91335347409373 7.835310782933219 19.09187627928095 -3.173823836224324 0 0 0 -41.55077749101572 -30.30190288261872 0.43845354365972455 -12.727757097838923 61.03080692856685 -46.937758323604456 -7.851399658899538 19.077585828517083 3.164059856039859 0 0 0 -0.019762569101183465 2.3743877849844846 -0.0231402124633861 -0.7223791123581901 -4.727561912621391 -0.10904671978823426 0 0 0 -5.011970939722419 10.757917644184362 -21.883758805448743 -10.823525224957697 -31.208484453969053 -52.81434304873465 -4.554338452291643 34.06083933432739 -11.944349834187307 54.869475836927975 -30.194316879010834 -63.84436138073712 0 0 0 0 0 0 0 0 0 0 0 0 0 0 0 0 0 0 0 0 0 0 0 0 0 0 0 0 0 0 0 0 0 0 0 0 0 0 0 0 0 0 0 0 0 0 41.525126342231175 0 6.1539821209758605 -22.96504482243272 5.786621047537031 0 0 0 0 0 0 0 0 0 6.273037369620001 9.970262615836763 23.952606972638545 10.616531093513952 -30.903054652842137 51.41062545432119 4.141466631744531 34.11099375505461 11.000300370945146 -54.56447605178812 -28.93842533517827 63.49476311515171 0 0 0 0 0 0 0 0 0 0 0 0 0 0 0 0 0 0 0 0 0 0 0 0 0 0 0 0 0 0 0 0 0 0 0 0 0 0 0 0 0 0 0 0 0
